<svg width="301" height="115" viewBox="0 0 301 115" fill="none" xmlns="http://www.w3.org/2000/svg">
<path fill-rule="evenodd" clip-rule="evenodd" d="M36.3605 0.45752C38.1628 0.886047 39.9692 1.25181 41.7556 1.74527C50.9289 4.28181 58.5905 9.34839 64.0275 17.9189C67.7896 23.8491 69.5681 30.4956 69.4147 37.7156C69.1498 49.946 64.1689 59.5965 55.5832 67.2018C49.6363 72.4718 42.7972 75.7009 35.2233 76.8891C26.3109 78.2894 17.6456 77.3631 9.68122 72.4437C7.10013 70.8486 4.86757 68.5913 2.47568 66.6412C2.41394 66.5915 2.36216 66.5287 2.31635 66.4659C1.79456 65.7647 1.08755 65.0332 1.66112 64.1177C1.75871 63.9575 3.02337 64.4142 3.56109 64.8579C6.60224 67.3879 9.53185 70.0825 13.0908 71.7749C18.4402 74.318 24.0067 75.2053 29.8241 74.6253C44.8765 73.1211 57.8476 60.7847 61.5201 45.0525C64.0972 33.9931 63.0676 23.4054 56.567 14.0406C52.4703 8.13856 46.7485 4.93758 40.1305 3.69961C32.3534 2.24738 24.7097 3.01787 17.3389 6.13227C11.8381 8.45454 7.22959 12.0213 4.70824 18.0683C2.72264 22.8297 2.52945 27.7794 3.82398 32.7962C3.87576 32.9953 3.92754 33.1901 3.98729 33.3871C4.17649 34.0493 4.54095 34.9302 3.70249 35.1445C3.30219 35.2548 2.4478 34.5796 2.22872 34.0515C1.09551 31.292 0.390494 28.4114 0.513973 25.3273C0.916272 14.9539 6.20193 8.4567 14.5825 4.50906C20.0315 1.93572 25.827 0.963961 31.728 0.706412C32.443 0.676112 33.148 0.544091 33.857 0.459684L36.3605 0.45752Z" fill="black"/>
<path fill-rule="evenodd" clip-rule="evenodd" d="M186.376 71.1149C186.171 71.6885 185.908 72.4135 185.663 73.1472C184.693 76.0885 182.636 77.3784 179.894 77.4325C176.359 77.5061 172.828 77.4043 169.293 77.4823C167.829 77.5147 168.181 76.4239 168.117 75.4803C166.913 75.9196 165.785 76.3612 164.636 76.7442C160.998 77.9584 157.363 77.7441 153.834 76.3438C150.363 74.9609 148.877 71.8551 148.59 68.0893C148.218 63.2305 150.08 59.0945 152.934 55.6035C158.781 48.4744 166.14 44.1588 174.819 42.5854C178.227 41.9686 181.652 41.6439 185.116 42.0898C187.183 42.356 189.117 43.0377 190.405 44.3752C189.917 45.2431 189.445 46.1651 188.914 47.0481C185.518 52.6601 182.218 58.3435 179.832 64.5658C178.924 66.9271 178.153 69.3381 178.3 71.9655C178.37 73.1494 178.671 74.2055 179.784 74.6514C180.989 75.1318 182.166 74.9003 183.009 73.8376C183.608 73.0714 184.028 72.1235 184.452 71.2167C184.789 70.4895 184.914 69.667 185.829 69.4117C186.022 69.3575 186.121 68.6606 186.157 68.2516C186.299 66.6544 187.061 65.3839 188.043 65.161C189.284 64.8883 190.501 65.6956 191.108 67.3404C191.375 68.0525 191.521 68.8446 191.566 69.6086C191.604 70.3813 191.489 71.169 191.391 71.9417C191.196 73.4848 191.415 73.9696 192.815 74.3592C195.231 75.0345 197.706 75.1773 200.12 74.4609C203.803 73.368 205.589 69.8856 204.474 65.6501C203.932 63.5984 202.855 61.6982 201.899 59.7957C200.869 57.7397 199.535 55.8459 198.634 53.7314C195.882 47.2775 199.204 41.4794 205.748 41.2522C208.608 41.1591 211.297 41.9837 213.661 43.8082C214.794 44.6782 215.728 45.7496 216.051 47.3057C216.302 48.522 216.395 49.6972 215.328 50.5521C214.481 51.2295 212.667 51.2382 211.791 50.4158C211.205 49.8747 210.741 49.1302 210.353 48.39C210.032 47.758 209.873 47.0092 209.666 46.3079C208.943 43.8017 207.419 43.0767 204.727 43.977C202.731 44.6566 201.801 46.5136 202.731 48.7752C203.661 51.0499 204.954 53.1492 206.123 55.307C207.298 57.4648 208.678 59.5079 209.686 61.7588C212.183 67.3859 210.69 72.6473 205.597 75.5019C200.347 78.4519 194.944 78.5514 189.846 74.9414C188.507 73.9891 187.533 72.4178 186.376 71.1149ZM183.196 44.6198C181.2 44.6198 179.477 44.3449 177.848 44.6653C170.758 46.0699 164.935 50.0543 160.032 55.6771C157.1 59.0383 155.397 62.9578 156.007 67.7408C156.317 70.2514 157.299 72.2512 159.635 73.2143C163.272 74.7163 168.347 73.3377 170.603 69.9094C172.017 67.7538 173.248 65.3947 174.228 62.9686C176.317 57.8111 178.494 52.7272 181.379 48.0264C182.001 47.0243 182.503 45.9357 183.196 44.6198Z" fill="black"/>
<path fill-rule="evenodd" clip-rule="evenodd" d="M78.6437 49.2273C76.6381 49.5563 75.1345 51.1492 73.1489 50.7575C72.884 49.5606 73.589 48.9265 74.3179 48.4417C75.1544 47.8898 76.0865 47.5154 76.9747 47.0761C79.4204 45.8705 81.8461 44.6218 84.3216 43.492C85.423 42.9899 86.604 42.6739 87.7711 42.3774C88.504 42.1891 88.7927 42.7258 88.5139 43.4011C88.0578 44.5222 87.5341 45.6173 86.9665 46.6778C83.5788 52.9694 80.1174 59.209 76.8154 65.5547C76.0148 67.0913 75.5527 68.9201 75.2898 70.6754C74.77 74.0733 76.7297 75.6814 79.6912 74.4326C82.4695 73.2617 84.6742 71.1732 86.9067 69.1149C91.3579 65.0006 94.9288 59.9946 98.8004 55.2895C102.005 51.3808 105.124 47.3834 108.324 43.4552C109.133 42.4596 109.963 41.4035 111.367 41.3494C111.825 42.3601 111.337 43.0418 110.891 43.7712C108.292 48.0262 105.478 52.1578 103.194 56.6032C100.451 61.9447 98.1293 67.548 95.6876 73.0691C92.4772 80.3302 88.7728 87.2906 84.3236 93.7142C80.1572 99.7287 75.9032 105.75 69.8369 109.799C65.9951 112.368 61.9622 114.275 57.3516 114.093C54.1372 113.972 51.2395 112.903 49.1443 110.037C48.2661 108.836 47.798 107.483 48.1207 105.873C49.0009 105.659 49.2559 106.349 49.5845 106.938C50.9288 109.319 52.7411 111.091 55.3163 111.63C57.6783 112.126 59.9068 111.5 62.01 110.271C65.4355 108.273 68.2356 105.447 70.7928 102.313C76.6441 95.1469 81.1212 86.9551 85.6221 78.7806C87.2712 75.7809 88.8585 72.7271 90.4657 69.7015C90.6887 69.2881 90.8759 68.8617 91.0791 68.4397C91.0094 68.3618 90.9357 68.2903 90.866 68.2124C89.7288 69.2448 88.5637 70.2512 87.4564 71.3182C84.7399 73.9456 81.8421 76.1986 78.1876 77.0622C76.2757 77.5102 74.3797 77.7439 72.4837 77.0384C70.2352 76.1965 69.0602 74.4001 68.9626 71.8506C68.8232 68.3618 69.7015 65.1218 71.229 62.1503C72.9836 58.7415 75.011 55.5038 76.9289 52.1924C77.4706 51.2596 78.0063 50.3333 78.6437 49.2273Z" fill="black"/>
<path fill-rule="evenodd" clip-rule="evenodd" d="M260.533 68.3143C258.699 69.97 256.876 71.6581 255.022 73.2835C252.045 75.8828 248.707 77.519 244.821 77.4563C239.908 77.3848 237.922 73.9588 238.719 69.0675C239.468 64.516 241.635 60.6311 243.881 56.8004C245.016 54.8503 246.231 52.9588 247.4 51.0325C247.709 50.5196 247.98 49.9785 248.422 49.1561C246.46 49.8595 244.764 50.4742 243.069 51.0867C242.943 50.92 242.818 50.7512 242.698 50.5845C243.077 49.9526 243.346 49.1604 243.861 48.7233C244.652 48.0567 245.602 47.5827 246.528 47.1282C249.117 45.8599 251.7 44.596 254.323 43.4294C255.556 42.8819 256.866 42.5507 258.147 42.1244C258.253 42.2585 258.358 42.3862 258.462 42.5204C258.219 43.2584 258.079 44.0592 257.725 44.728C256.43 47.1455 255.032 49.5002 253.724 51.9156C251.413 56.2095 249.029 60.4666 246.893 64.8666C245.99 66.7236 245.492 68.8554 245.07 70.9266C244.479 73.8484 246.373 75.5928 248.986 74.6275C251.844 73.5714 254.12 71.4828 256.331 69.3445C261.59 64.252 266.239 58.5361 270.788 52.7077C273.09 49.7491 275.396 46.7906 277.744 43.858C278.62 42.752 279.568 41.6915 281.335 41.1375C281.082 42.1114 281.036 42.8169 280.733 43.3472C279.776 45.0267 278.788 46.691 277.694 48.2753C273.701 54.0885 270.772 60.5597 267.944 67.0829C264.468 75.0929 260.863 83.0206 256.313 90.3965C252.065 97.2876 247.363 103.733 241.159 108.704C237.859 111.349 234.278 113.381 230.157 114.009C226.403 114.578 222.888 113.924 219.897 111.184C218.869 110.247 217.983 109.128 217.859 107.6C217.807 107.025 218.092 106.421 218.234 105.832C218.62 106.224 219.142 106.538 219.391 107.02C220.667 109.529 222.53 111.1 225.172 111.509C228.837 112.072 231.956 110.652 234.786 108.306C239.769 104.159 243.614 98.861 246.982 93.2144C251.186 86.1632 255.062 78.889 259.069 71.7058C259.649 70.6582 260.182 69.5848 260.748 68.5243C260.68 68.4529 260.603 68.3814 260.533 68.3143Z" fill="black"/>
<path fill-rule="evenodd" clip-rule="evenodd" d="M119.81 47.7361C118.069 48.2296 116.633 48.7122 115.163 49.0195C114.584 49.1386 113.492 49.0304 113.395 48.7295C113.106 47.8443 113.944 47.5089 114.576 47.2621C118.662 45.6519 122.747 44.0525 126.85 42.5072C127.999 42.0765 128.405 42.557 128.069 43.8707C127.826 44.8381 127.445 45.7623 127.073 46.8639C129.015 45.6562 130.779 44.4767 132.618 43.4443C134.985 42.1155 137.443 41.0636 140.187 41.1307C145.232 41.2606 147.975 44.9139 147.682 50.2813C147.357 56.0491 144.72 60.6504 141.317 64.8383C139.558 66.9982 137.746 69.1127 136.019 71.303C135.23 72.305 135.36 72.9284 136.511 73.2876C137.379 73.556 138.373 73.5127 139.289 73.4088C140.484 73.2811 141.653 72.9651 142.826 72.7249C143.119 74.1966 142.609 75.3177 141.283 76.2116C139.753 77.2461 138.055 77.6768 136.278 77.3889C134.284 77.06 132.331 76.692 130.327 77.3846C129.935 77.5188 129.176 77.2309 128.937 76.8695C128.712 76.5189 128.796 75.7224 129.015 75.2961C129.361 74.6295 129.935 74.1036 130.425 73.53C135.493 67.6518 139.038 60.8517 140.896 53.0386C141.092 52.2465 141.161 51.4089 141.187 50.5886C141.337 46.154 139.072 44.5568 135.35 45.1173C131.669 45.6714 129.055 48.169 126.71 51.0669C123.922 54.5298 121.791 58.4753 119.77 62.4944C118.593 64.8426 117.356 67.167 116.314 69.5824C115.813 70.7446 115.629 72.0908 115.444 73.372C115.384 73.7876 115.691 74.5472 116.002 74.6749C116.414 74.8437 117.037 74.6749 117.479 74.4477C117.864 74.2486 118.131 73.7703 118.455 73.4218C118.987 72.8591 119.604 72.4457 120.22 73.1924C120.805 73.9131 120.282 74.5429 119.806 74.9888C117.84 76.7938 115.599 77.8131 112.992 77.3521C110.385 76.8933 107.8 76.9366 105.187 77.3305C104.245 77.4733 103.26 77.3521 102.296 77.3521C102.21 75.9497 102.736 75.1641 103.722 75.1121C106.524 74.9563 108.111 73.1361 109.262 70.6494C111.73 65.3231 114.177 59.9881 116.637 54.6532C117.653 52.4499 118.657 50.2467 119.81 47.7361Z" fill="black"/>
<path fill-rule="evenodd" clip-rule="evenodd" d="M247.695 14.7072C242.322 23.1673 239.504 32.6815 236.016 42.0572C237.452 42.1762 238.594 42.1806 239.705 42.4013C240.259 42.5139 240.752 43.0095 241.27 43.3341C240.804 43.6847 240.374 44.2301 239.862 44.3427C238.679 44.5937 237.452 44.7301 236.253 44.7193C235.365 44.7106 235.033 45.1067 234.688 45.9118C232.693 50.7057 230.729 55.5169 228.572 60.2307C226.917 63.8667 224.682 67.1023 221.922 69.8899C221.623 70.195 221.356 70.5521 221.08 70.8941C220.964 71.0477 220.866 71.223 220.604 71.617C221.976 71.8745 223.193 72.2013 224.425 72.316C225.686 72.4286 226.969 72.3615 228.241 72.3333C228.93 72.3182 229.183 72.5238 229.032 73.3505C228.685 75.2486 227.2 76.6359 224.907 77.2203C223.173 77.6661 221.504 77.4086 219.865 76.9086C218.271 76.426 216.752 76.4498 215.198 77.0406C214.888 77.1597 214.497 77.0623 214.151 77.0558C214.177 76.6727 214.173 76.2702 214.256 75.8979C214.314 75.6295 214.493 75.3785 214.639 75.1491C218.208 69.6258 220.849 63.5485 223.511 57.5015C225.16 53.7551 226.624 49.9157 228.122 46.0914C228.65 44.7539 228.56 44.7171 227.257 44.4985C226.624 44.3946 225.991 44.2561 225.387 44.0462C225.113 43.9445 224.726 43.6501 224.706 43.4185C224.684 43.1307 224.929 42.6545 225.17 42.5312C231.33 39.4233 234.391 33.3092 237.598 27.3812C239.808 23.2777 242.073 19.2435 245.132 15.7936C245.727 15.1141 246.331 14.4172 247.695 14.7072Z" fill="black"/>
<path fill-rule="evenodd" clip-rule="evenodd" d="M48.079 9.64267C47.8141 10.2292 47.6607 10.9239 47.2763 11.3871C42.6619 16.9536 39.6745 23.5915 36.8962 30.3116C34.3868 36.378 32.443 42.7194 29.9058 48.7729C27.1016 55.4605 23.3535 61.5183 18.0379 66.23C16.4029 67.6779 14.5766 68.799 12.3321 68.5696C12.1847 68.5544 12.0433 68.4873 11.6669 68.3769C11.9576 67.8662 12.1488 67.4138 12.4356 67.0416C13.8078 65.2474 15.3692 63.6004 16.5662 61.6806C21.0034 54.5515 24.2457 46.7796 27.0737 38.7544C29.854 30.8375 33.2994 23.2625 38.5034 16.8367C40.1226 14.8369 41.9947 13.0471 43.9066 11.3719C44.986 10.4218 46.3801 9.89805 47.6328 9.18384C47.7822 9.33317 47.9296 9.48467 48.079 9.64267Z" fill="black"/>
<path fill-rule="evenodd" clip-rule="evenodd" d="M292.223 58.8715C287.728 58.8672 283.958 54.7464 283.982 49.8681C284.002 45.0677 287.77 40.9707 292.197 40.9383C296.678 40.8993 300.478 45.0028 300.5 49.8941C300.526 54.7702 296.738 58.8758 292.223 58.8715ZM292.281 42.9727C288.644 42.9532 285.854 45.9183 285.824 49.8594C285.788 53.714 288.608 56.8674 292.169 56.9583C295.613 57.047 298.819 53.701 298.721 49.9222C298.606 45.6629 295.622 42.9013 292.281 42.9727Z" fill="black"/>
<path fill-rule="evenodd" clip-rule="evenodd" d="M288.218 44.901C289.97 44.901 291.637 44.8166 293.294 44.9269C294.577 45.0092 295.399 45.9615 295.519 47.1562C295.676 48.8465 295.143 49.6732 293.482 50.329C294.408 51.7812 295.338 53.2421 296.306 54.7701C295.24 55.151 294.565 54.9692 294.129 53.9477C293.86 53.3157 293.43 52.7681 293.103 52.1665C292.322 50.6753 291.149 50.2229 289.53 50.5974V54.8394H288.216V44.901H288.218ZM289.564 49.3854C290.825 49.288 292.006 49.3269 293.111 49.0348C293.559 48.92 294.101 48.1171 294.133 47.5912C294.163 47.1562 293.563 46.3705 293.133 46.271C291.988 46.0199 290.787 46.0524 289.562 45.968L289.564 49.3854Z" fill="black"/>
</svg>
